<?xml version="1.0" encoding="UTF-8" standalone="no"?>
<!-- Created with Inkscape (http://www.inkscape.org/) -->
<svg xmlns:dc="http://purl.org/dc/elements/1.1/" xmlns:cc="http://creativecommons.org/ns#" xmlns:rdf="http://www.w3.org/1999/02/22-rdf-syntax-ns#" xmlns:svg="http://www.w3.org/2000/svg" xmlns="http://www.w3.org/2000/svg" xmlns:sodipodi="http://sodipodi.sourceforge.net/DTD/sodipodi-0.dtd" xmlns:inkscape="http://www.inkscape.org/namespaces/inkscape" version="1.0" width="576" height="336" id="svg2" inkscape:version="0.48.4 r9939" sodipodi:docname="Granny_knot.svg">
  <metadata id="metadata12">
    <rdf:RDF>
      <cc:Work rdf:about="">
        <dc:format>image/svg+xml</dc:format>
        <dc:type rdf:resource="http://purl.org/dc/dcmitype/StillImage"/>
      </cc:Work>
    </rdf:RDF>
  </metadata>
  <sodipodi:namedview pagecolor="#ffffff" bordercolor="#666666" borderopacity="1" objecttolerance="10" gridtolerance="10" guidetolerance="10" inkscape:pageopacity="0" inkscape:pageshadow="2" inkscape:window-width="740" inkscape:window-height="555" id="namedview10" showgrid="false" inkscape:zoom="0.609375" inkscape:cx="261.82847" inkscape:cy="166.97003" inkscape:window-x="502" inkscape:window-y="40" inkscape:window-maximized="0" inkscape:current-layer="g10"/>
  <defs id="defs8"/>
  <g transform="scale(16,16)" id="g10">
    <path d="M 14,19 C 12,19 10,17 10,15 L 10,11" style="fill:none;stroke:#327ecd;stroke-width:2;stroke-linecap:round;stroke-linejoin:round;stroke-opacity:1" id="b2"/>
    <path d="M 0,14 L 14,14 C 17,14 18,19 22,19 M 26,10 L 26,6 C 26,4 24,2 22,2" style="fill:none;stroke:#dd3232;stroke-width:2;stroke-linecap:round;stroke-linejoin:round;stroke-opacity:1" id="r13"/>
    <path d="M 14,19 C 18,19 19,14 22,14 L 36,14 M 30,7 L 22,7 C 19,7 18,2 14,2" style="fill:none;stroke:#327ecd;stroke-width:2;stroke-linecap:round;stroke-linejoin:round;stroke-opacity:1" id="b14"/>
    <path d="M 22,19 C 24,19 26,17 26,15 L 26,10 M 22,2 C 18,2 17,7 14,7 L 6,7" style="fill:none;stroke:#dd3232;stroke-width:2;stroke-linecap:round;stroke-linejoin:round;stroke-opacity:1" id="r24"/>
    <path d="M 10,11 L 10,6 C 10,4 12,2 14,2" style="fill:none;stroke:#327ecd;stroke-width:2;stroke-linecap:round;stroke-linejoin:round;stroke-opacity:1" id="b3"/>
  </g>
</svg>