<svg width="283" height="356" viewBox="0 0 283 356" fill="none" xmlns="http://www.w3.org/2000/svg">
  <path d="M131.129 279.922L116.169 278.823L131.129 279.922ZM253 176.5C253 238.08 203.08 288 141.5 288V318C219.648 318 283 254.648 283 176.5H253ZM141.5 288C79.9202 288 30 238.08 30 176.5H0C0 254.648 63.3517 318 141.5 318V288ZM30 176.5C30 114.92 79.9202 65 141.5 65V35C63.3517 35 0 98.3517 0 176.5H30ZM141.5 65C203.08 65 253 114.92 253 176.5H283C283 98.3517 219.648 35 141.5 35V65ZM146.129 143.923C146.129 134.378 149.676 127.318 155.201 117.009C160.527 107.072 167.832 93.8867 167.832 75.9225H137.832C137.832 85.4668 134.285 92.5272 128.76 102.836C123.434 112.773 116.129 125.958 116.129 143.923H146.129ZM167.832 75.9225C167.832 59.1044 161.425 39.8261 155.907 26.0349C153.038 18.8639 150.178 12.6235 148.035 8.1719C146.961 5.94047 146.059 4.14408 145.417 2.88858C145.096 2.26048 144.84 1.76674 144.658 1.42052C144.568 1.24738 144.496 1.11104 144.444 1.01314C144.418 0.964188 144.397 0.924837 144.381 0.895292C144.373 0.880519 144.367 0.868197 144.361 0.85835C144.359 0.853427 144.356 0.849123 144.354 0.845441C144.353 0.843601 144.352 0.841305 144.352 0.840385C144.351 0.838248 144.349 0.836265 131.129 7.92249C117.908 15.0087 117.907 15.007 117.906 15.0055C117.906 15.0052 117.906 15.0038 117.905 15.0032C117.905 15.002 117.904 15.0014 117.904 15.0014C117.904 15.0014 117.906 15.0038 117.908 15.0086C117.913 15.0182 117.923 15.0373 117.939 15.0658C117.969 15.1228 118.019 15.2172 118.087 15.3474C118.223 15.6077 118.433 16.0108 118.705 16.5436C119.25 17.6099 120.045 19.1919 121.005 21.1863C122.931 25.1865 125.497 30.7883 128.054 37.1788C133.388 50.5104 137.832 65.2321 137.832 75.9225H167.832ZM146.088 281.022C146.842 270.775 150.734 263.263 156.096 252.765C161.328 242.521 167.832 229.573 167.832 211.923H137.832C137.832 221.78 134.494 229.105 129.379 239.12C124.394 248.881 117.434 261.615 116.169 278.823L146.088 281.022ZM167.832 211.923C167.832 193.958 160.527 180.773 155.201 170.836C149.676 160.527 146.129 153.467 146.129 143.923H116.129C116.129 161.887 123.434 175.072 128.76 185.009C134.285 195.318 137.832 202.378 137.832 211.923H167.832ZM152.832 347.922C165.843 340.458 165.844 340.46 165.845 340.461C165.845 340.462 165.846 340.463 165.846 340.464C165.847 340.465 165.848 340.466 165.848 340.466C165.848 340.467 165.847 340.465 165.844 340.46C165.839 340.451 165.829 340.433 165.813 340.404C165.781 340.348 165.727 340.254 165.654 340.123C165.508 339.862 165.282 339.456 164.989 338.918C164.403 337.843 163.55 336.247 162.524 334.237C160.464 330.203 157.744 324.576 155.096 318.199C149.49 304.699 145.386 290.572 146.088 281.022L116.169 278.823C114.905 296.019 121.653 315.891 127.39 329.705C130.414 336.985 133.488 343.343 135.805 347.88C136.967 350.156 137.948 351.992 138.649 353.277C138.999 353.92 139.28 354.426 139.48 354.782C139.579 354.96 139.659 355.101 139.716 355.202C139.745 355.253 139.768 355.294 139.786 355.325C139.795 355.34 139.802 355.353 139.808 355.364C139.811 355.369 139.814 355.373 139.816 355.377C139.817 355.379 139.818 355.382 139.819 355.383C139.82 355.385 139.822 355.387 152.832 347.922Z" fill="currentColor"/>
</svg>
